<mxfile host="app.diagrams.net" modified="2023-12-08T09:43:53.531Z" agent="Mozilla/5.0 (Windows NT 10.0; Win64; x64) AppleWebKit/537.36 (KHTML, like Gecko) Chrome/119.0.0.0 Safari/537.36 Edg/119.0.0.0" etag="MtHOhrOy9vYUqgSnZWT8" version="22.1.7" type="github">
  <diagram name="Page-1" id="c4acf3e9-155e-7222-9cf6-157b1a14988f">
    <mxGraphModel dx="2773" dy="1275" grid="1" gridSize="10" guides="1" tooltips="1" connect="1" arrows="1" fold="1" page="1" pageScale="1" pageWidth="850" pageHeight="1100" background="none" math="0" shadow="0">
      <root>
        <mxCell id="0" />
        <mxCell id="1" parent="0" />
        <mxCell id="OZuqmoxS4hGVeMsFbTug-1" value="&lt;h1&gt;ADM for ch3 &amp;amp; 4&lt;/h1&gt;&lt;p&gt;This is the ADM for chapter 3: Understanding QA, and chapter 4: Availability&lt;/p&gt;" style="text;html=1;strokeColor=none;fillColor=none;spacing=5;spacingTop=-20;whiteSpace=wrap;overflow=hidden;rounded=0;" parent="1" vertex="1">
          <mxGeometry x="10" y="10" width="210" height="120" as="geometry" />
        </mxCell>
        <mxCell id="OZuqmoxS4hGVeMsFbTug-35" value="Modifiability" style="swimlane;fontStyle=0;childLayout=stackLayout;horizontal=1;startSize=26;fillColor=none;horizontalStack=0;resizeParent=1;resizeParentMax=0;resizeLast=0;collapsible=1;marginBottom=0;whiteSpace=wrap;html=1;" parent="1" vertex="1">
          <mxGeometry x="410" y="390" width="180" height="100" as="geometry" />
        </mxCell>
        <mxCell id="OZuqmoxS4hGVeMsFbTug-51" value="Tactic-Based Questionnaries" style="swimlane;fontStyle=0;childLayout=stackLayout;horizontal=1;startSize=26;fillColor=none;horizontalStack=0;resizeParent=1;resizeParentMax=0;resizeLast=0;collapsible=1;marginBottom=0;whiteSpace=wrap;html=1;" parent="1" vertex="1">
          <mxGeometry x="410" y="150" width="180" height="100" as="geometry" />
        </mxCell>
        <mxCell id="OZuqmoxS4hGVeMsFbTug-60" value="Patterns" style="swimlane;fontStyle=0;childLayout=stackLayout;horizontal=1;startSize=26;fillColor=none;horizontalStack=0;resizeParent=1;resizeParentMax=0;resizeLast=0;collapsible=1;marginBottom=0;whiteSpace=wrap;html=1;" parent="1" vertex="1">
          <mxGeometry x="410" y="620" width="180" height="90" as="geometry" />
        </mxCell>
        <mxCell id="OZuqmoxS4hGVeMsFbTug-84" value="" style="endArrow=none;html=1;edgeStyle=orthogonalEdgeStyle;rounded=0;exitX=0.5;exitY=0;exitDx=0;exitDy=0;" parent="1" source="OZuqmoxS4hGVeMsFbTug-60" target="OZuqmoxS4hGVeMsFbTug-35" edge="1">
          <mxGeometry relative="1" as="geometry">
            <mxPoint x="520.0799999999999" y="640" as="sourcePoint" />
            <mxPoint x="680.0800000000002" y="640" as="targetPoint" />
          </mxGeometry>
        </mxCell>
        <mxCell id="OZuqmoxS4hGVeMsFbTug-85" value="1..*" style="edgeLabel;resizable=0;html=1;align=left;verticalAlign=bottom;" parent="OZuqmoxS4hGVeMsFbTug-84" connectable="0" vertex="1">
          <mxGeometry x="-1" relative="1" as="geometry" />
        </mxCell>
        <mxCell id="OZuqmoxS4hGVeMsFbTug-86" value="1" style="edgeLabel;resizable=0;html=1;align=right;verticalAlign=bottom;" parent="OZuqmoxS4hGVeMsFbTug-84" connectable="0" vertex="1">
          <mxGeometry x="1" relative="1" as="geometry">
            <mxPoint x="10" y="18" as="offset" />
          </mxGeometry>
        </mxCell>
        <mxCell id="OZuqmoxS4hGVeMsFbTug-87" value="divides" style="edgeLabel;html=1;align=center;verticalAlign=middle;resizable=0;points=[];" parent="OZuqmoxS4hGVeMsFbTug-84" vertex="1" connectable="0">
          <mxGeometry x="0.246" y="-2" relative="1" as="geometry">
            <mxPoint as="offset" />
          </mxGeometry>
        </mxCell>
        <mxCell id="OZuqmoxS4hGVeMsFbTug-98" value="" style="endArrow=none;html=1;edgeStyle=orthogonalEdgeStyle;rounded=0;exitX=0.5;exitY=0;exitDx=0;exitDy=0;" parent="1" source="OZuqmoxS4hGVeMsFbTug-35" target="OZuqmoxS4hGVeMsFbTug-51" edge="1">
          <mxGeometry relative="1" as="geometry">
            <mxPoint x="490.0799999999999" y="300" as="sourcePoint" />
            <mxPoint x="650.0800000000002" y="300" as="targetPoint" />
          </mxGeometry>
        </mxCell>
        <mxCell id="OZuqmoxS4hGVeMsFbTug-99" value="1" style="edgeLabel;resizable=0;html=1;align=left;verticalAlign=bottom;" parent="OZuqmoxS4hGVeMsFbTug-98" connectable="0" vertex="1">
          <mxGeometry x="-1" relative="1" as="geometry" />
        </mxCell>
        <mxCell id="OZuqmoxS4hGVeMsFbTug-100" value="*" style="edgeLabel;resizable=0;html=1;align=right;verticalAlign=bottom;" parent="OZuqmoxS4hGVeMsFbTug-98" connectable="0" vertex="1">
          <mxGeometry x="1" relative="1" as="geometry">
            <mxPoint x="10" y="18" as="offset" />
          </mxGeometry>
        </mxCell>
        <mxCell id="OZuqmoxS4hGVeMsFbTug-102" value="Evaluate the satisfication of" style="edgeLabel;html=1;align=center;verticalAlign=middle;resizable=0;points=[];" parent="OZuqmoxS4hGVeMsFbTug-98" vertex="1" connectable="0">
          <mxGeometry x="0.0123" y="2" relative="1" as="geometry">
            <mxPoint as="offset" />
          </mxGeometry>
        </mxCell>
        <mxCell id="Bf2Zrh9VJoYy281yFuav-2" value="Modifiability Tactics" style="swimlane;fontStyle=0;childLayout=stackLayout;horizontal=1;startSize=26;fillColor=none;horizontalStack=0;resizeParent=1;resizeParentMax=0;resizeLast=0;collapsible=1;marginBottom=0;whiteSpace=wrap;html=1;" parent="1" vertex="1">
          <mxGeometry x="777.1700000000001" y="394" width="180" height="90" as="geometry" />
        </mxCell>
        <mxCell id="Bf2Zrh9VJoYy281yFuav-4" value="" style="endArrow=none;html=1;rounded=0;entryX=0;entryY=0.5;entryDx=0;entryDy=0;" parent="1" target="Bf2Zrh9VJoYy281yFuav-2" edge="1">
          <mxGeometry width="50" height="50" relative="1" as="geometry">
            <mxPoint x="590.1700000000001" y="439" as="sourcePoint" />
            <mxPoint x="719.1700000000003" y="439.15599999999995" as="targetPoint" />
          </mxGeometry>
        </mxCell>
        <mxCell id="Bf2Zrh9VJoYy281yFuav-5" value="1" style="edgeLabel;resizable=0;html=1;align=left;verticalAlign=bottom;" parent="1" connectable="0" vertex="1">
          <mxGeometry x="590" y="439" as="geometry" />
        </mxCell>
        <mxCell id="Bf2Zrh9VJoYy281yFuav-6" value="1..*" style="edgeLabel;resizable=0;html=1;align=right;verticalAlign=bottom;" parent="1" connectable="0" vertex="1">
          <mxGeometry x="770.1698969700078" y="438.99999897428836" as="geometry" />
        </mxCell>
        <mxCell id="Bf2Zrh9VJoYy281yFuav-17" value="Control complexity" style="edgeLabel;html=1;align=center;verticalAlign=middle;resizable=0;points=[];" parent="1" vertex="1" connectable="0">
          <mxGeometry x="680.1700000000001" y="419.9966666666668" as="geometry" />
        </mxCell>
        <mxCell id="8VK9so_CP51kFQA9M_FP-1" value="" style="endArrow=none;html=1;rounded=0;" edge="1" parent="1">
          <mxGeometry width="50" height="50" relative="1" as="geometry">
            <mxPoint x="959.1700000000001" y="440" as="sourcePoint" />
            <mxPoint x="1049.17" y="440" as="targetPoint" />
          </mxGeometry>
        </mxCell>
        <mxCell id="8VK9so_CP51kFQA9M_FP-3" value="" style="endArrow=none;html=1;rounded=0;" edge="1" parent="1">
          <mxGeometry width="50" height="50" relative="1" as="geometry">
            <mxPoint x="1050" y="510" as="sourcePoint" />
            <mxPoint x="1050" y="360" as="targetPoint" />
          </mxGeometry>
        </mxCell>
        <mxCell id="8VK9so_CP51kFQA9M_FP-4" value="" style="endArrow=none;html=1;rounded=0;" edge="1" parent="1">
          <mxGeometry width="50" height="50" relative="1" as="geometry">
            <mxPoint x="1050" y="360" as="sourcePoint" />
            <mxPoint x="1130" y="360" as="targetPoint" />
          </mxGeometry>
        </mxCell>
        <mxCell id="8VK9so_CP51kFQA9M_FP-5" value="increase cohesion" style="swimlane;fontStyle=0;childLayout=stackLayout;horizontal=1;startSize=26;fillColor=none;horizontalStack=0;resizeParent=1;resizeParentMax=0;resizeLast=0;collapsible=1;marginBottom=0;whiteSpace=wrap;html=1;" vertex="1" parent="1">
          <mxGeometry x="1130.0000000000002" y="338" width="180" height="52" as="geometry" />
        </mxCell>
        <mxCell id="8VK9so_CP51kFQA9M_FP-6" value="xxx" style="text;strokeColor=none;fillColor=none;align=left;verticalAlign=top;spacingLeft=4;spacingRight=4;overflow=hidden;rotatable=0;points=[[0,0.5],[1,0.5]];portConstraint=eastwest;whiteSpace=wrap;html=1;" vertex="1" parent="8VK9so_CP51kFQA9M_FP-5">
          <mxGeometry y="26" width="180" height="26" as="geometry" />
        </mxCell>
        <mxCell id="8VK9so_CP51kFQA9M_FP-7" value="" style="endArrow=none;html=1;rounded=0;" edge="1" parent="1">
          <mxGeometry width="50" height="50" relative="1" as="geometry">
            <mxPoint x="1050" y="440" as="sourcePoint" />
            <mxPoint x="1130" y="440" as="targetPoint" />
          </mxGeometry>
        </mxCell>
        <mxCell id="8VK9so_CP51kFQA9M_FP-8" value="Reduce Coupling" style="swimlane;fontStyle=0;childLayout=stackLayout;horizontal=1;startSize=26;fillColor=none;horizontalStack=0;resizeParent=1;resizeParentMax=0;resizeLast=0;collapsible=1;marginBottom=0;whiteSpace=wrap;html=1;" vertex="1" parent="1">
          <mxGeometry x="1130.0000000000002" y="420" width="180" height="52" as="geometry" />
        </mxCell>
        <mxCell id="8VK9so_CP51kFQA9M_FP-9" value="xxx" style="text;strokeColor=none;fillColor=none;align=left;verticalAlign=top;spacingLeft=4;spacingRight=4;overflow=hidden;rotatable=0;points=[[0,0.5],[1,0.5]];portConstraint=eastwest;whiteSpace=wrap;html=1;" vertex="1" parent="8VK9so_CP51kFQA9M_FP-8">
          <mxGeometry y="26" width="180" height="26" as="geometry" />
        </mxCell>
        <mxCell id="8VK9so_CP51kFQA9M_FP-10" value="" style="endArrow=none;html=1;rounded=0;" edge="1" parent="1">
          <mxGeometry width="50" height="50" relative="1" as="geometry">
            <mxPoint x="1050" y="510" as="sourcePoint" />
            <mxPoint x="1130" y="510" as="targetPoint" />
          </mxGeometry>
        </mxCell>
        <mxCell id="8VK9so_CP51kFQA9M_FP-11" value="Defer Bindling" style="swimlane;fontStyle=0;childLayout=stackLayout;horizontal=1;startSize=26;fillColor=none;horizontalStack=0;resizeParent=1;resizeParentMax=0;resizeLast=0;collapsible=1;marginBottom=0;whiteSpace=wrap;html=1;" vertex="1" parent="1">
          <mxGeometry x="1130.0000000000002" y="490" width="180" height="52" as="geometry" />
        </mxCell>
        <mxCell id="8VK9so_CP51kFQA9M_FP-12" value="xxx" style="text;strokeColor=none;fillColor=none;align=left;verticalAlign=top;spacingLeft=4;spacingRight=4;overflow=hidden;rotatable=0;points=[[0,0.5],[1,0.5]];portConstraint=eastwest;whiteSpace=wrap;html=1;" vertex="1" parent="8VK9so_CP51kFQA9M_FP-11">
          <mxGeometry y="26" width="180" height="26" as="geometry" />
        </mxCell>
        <mxCell id="8VK9so_CP51kFQA9M_FP-13" value="1..*" style="edgeLabel;resizable=0;html=1;align=right;verticalAlign=bottom;" connectable="0" vertex="1" parent="1">
          <mxGeometry x="979.9998969700077" y="438.99999897428836" as="geometry" />
        </mxCell>
        <mxCell id="8VK9so_CP51kFQA9M_FP-14" value="" style="endArrow=none;html=1;rounded=0;entryX=0.779;entryY=0.997;entryDx=0;entryDy=0;entryPerimeter=0;" edge="1" parent="1">
          <mxGeometry width="50" height="50" relative="1" as="geometry">
            <mxPoint x="820" y="630" as="sourcePoint" />
            <mxPoint x="820" y="484" as="targetPoint" />
          </mxGeometry>
        </mxCell>
        <mxCell id="8VK9so_CP51kFQA9M_FP-15" value="comprise" style="edgeLabel;html=1;align=center;verticalAlign=middle;resizable=0;points=[];" vertex="1" connectable="0" parent="8VK9so_CP51kFQA9M_FP-14">
          <mxGeometry x="-0.0994" y="4" relative="1" as="geometry">
            <mxPoint x="4" y="-11" as="offset" />
          </mxGeometry>
        </mxCell>
        <mxCell id="8VK9so_CP51kFQA9M_FP-16" value="" style="endArrow=none;html=1;rounded=0;exitX=1;exitY=0.111;exitDx=0;exitDy=0;exitPerimeter=0;" edge="1" parent="1" source="OZuqmoxS4hGVeMsFbTug-60">
          <mxGeometry width="50" height="50" relative="1" as="geometry">
            <mxPoint x="655.17" y="640" as="sourcePoint" />
            <mxPoint x="820" y="630" as="targetPoint" />
          </mxGeometry>
        </mxCell>
        <mxCell id="8VK9so_CP51kFQA9M_FP-17" value="1" style="edgeLabel;resizable=0;html=1;align=right;verticalAlign=bottom;" connectable="0" vertex="1" parent="1">
          <mxGeometry x="600" y="649.9951724137931" as="geometry" />
        </mxCell>
        <mxCell id="8VK9so_CP51kFQA9M_FP-18" value="*" style="edgeLabel;resizable=0;html=1;align=right;verticalAlign=bottom;" connectable="0" vertex="1" parent="1">
          <mxGeometry x="810" y="509.9999999999999" as="geometry" />
        </mxCell>
        <mxCell id="8VK9so_CP51kFQA9M_FP-19" value="1" style="edgeLabel;resizable=0;html=1;align=left;verticalAlign=bottom;" connectable="0" vertex="1" parent="1">
          <mxGeometry x="1119" y="356" as="geometry" />
        </mxCell>
        <mxCell id="8VK9so_CP51kFQA9M_FP-20" value="1" style="edgeLabel;resizable=0;html=1;align=left;verticalAlign=bottom;" connectable="0" vertex="1" parent="1">
          <mxGeometry x="1119" y="439" as="geometry" />
        </mxCell>
        <mxCell id="8VK9so_CP51kFQA9M_FP-21" value="1" style="edgeLabel;resizable=0;html=1;align=left;verticalAlign=bottom;" connectable="0" vertex="1" parent="1">
          <mxGeometry x="1119" y="510" as="geometry" />
        </mxCell>
        <mxCell id="8VK9so_CP51kFQA9M_FP-22" value="" style="endArrow=none;html=1;rounded=0;entryX=0.443;entryY=1.012;entryDx=0;entryDy=0;entryPerimeter=0;" edge="1" parent="1">
          <mxGeometry width="50" height="50" relative="1" as="geometry">
            <mxPoint x="490" y="750" as="sourcePoint" />
            <mxPoint x="489.74000000000024" y="710.768" as="targetPoint" />
          </mxGeometry>
        </mxCell>
        <mxCell id="8VK9so_CP51kFQA9M_FP-23" value="" style="endArrow=none;html=1;rounded=0;" edge="1" parent="1">
          <mxGeometry width="50" height="50" relative="1" as="geometry">
            <mxPoint x="210" y="750" as="sourcePoint" />
            <mxPoint x="740" y="750" as="targetPoint" />
          </mxGeometry>
        </mxCell>
        <mxCell id="8VK9so_CP51kFQA9M_FP-24" value="" style="endArrow=none;html=1;rounded=0;" edge="1" parent="1">
          <mxGeometry width="50" height="50" relative="1" as="geometry">
            <mxPoint x="210" y="790" as="sourcePoint" />
            <mxPoint x="210" y="750" as="targetPoint" />
          </mxGeometry>
        </mxCell>
        <mxCell id="8VK9so_CP51kFQA9M_FP-25" value="" style="endArrow=none;html=1;rounded=0;" edge="1" parent="1">
          <mxGeometry width="50" height="50" relative="1" as="geometry">
            <mxPoint x="740" y="790" as="sourcePoint" />
            <mxPoint x="740" y="750" as="targetPoint" />
          </mxGeometry>
        </mxCell>
        <mxCell id="8VK9so_CP51kFQA9M_FP-26" value="" style="endArrow=none;html=1;rounded=0;" edge="1" parent="1">
          <mxGeometry width="50" height="50" relative="1" as="geometry">
            <mxPoint x="410" y="790" as="sourcePoint" />
            <mxPoint x="410" y="750" as="targetPoint" />
          </mxGeometry>
        </mxCell>
        <mxCell id="8VK9so_CP51kFQA9M_FP-27" value="" style="endArrow=none;html=1;rounded=0;" edge="1" parent="1">
          <mxGeometry width="50" height="50" relative="1" as="geometry">
            <mxPoint x="590" y="790" as="sourcePoint" />
            <mxPoint x="590" y="750" as="targetPoint" />
          </mxGeometry>
        </mxCell>
        <mxCell id="8VK9so_CP51kFQA9M_FP-28" value="1..*" style="edgeLabel;resizable=0;html=1;align=left;verticalAlign=bottom;" connectable="0" vertex="1" parent="1">
          <mxGeometry x="490" y="730" as="geometry" />
        </mxCell>
        <mxCell id="8VK9so_CP51kFQA9M_FP-29" value="Client-Server Pattern" style="swimlane;fontStyle=0;childLayout=stackLayout;horizontal=1;startSize=26;fillColor=none;horizontalStack=0;resizeParent=1;resizeParentMax=0;resizeLast=0;collapsible=1;marginBottom=0;whiteSpace=wrap;html=1;" vertex="1" parent="1">
          <mxGeometry x="150" y="790" width="130" height="52" as="geometry" />
        </mxCell>
        <mxCell id="8VK9so_CP51kFQA9M_FP-30" value="xxx" style="text;strokeColor=none;fillColor=none;align=left;verticalAlign=top;spacingLeft=4;spacingRight=4;overflow=hidden;rotatable=0;points=[[0,0.5],[1,0.5]];portConstraint=eastwest;whiteSpace=wrap;html=1;" vertex="1" parent="8VK9so_CP51kFQA9M_FP-29">
          <mxGeometry y="26" width="130" height="26" as="geometry" />
        </mxCell>
        <mxCell id="8VK9so_CP51kFQA9M_FP-31" value="Plug-in (Microkernel) Pattern" style="swimlane;fontStyle=0;childLayout=stackLayout;horizontal=1;startSize=26;fillColor=none;horizontalStack=0;resizeParent=1;resizeParentMax=0;resizeLast=0;collapsible=1;marginBottom=0;whiteSpace=wrap;html=1;" vertex="1" parent="1">
          <mxGeometry x="315" y="790" width="185" height="52" as="geometry" />
        </mxCell>
        <mxCell id="8VK9so_CP51kFQA9M_FP-32" value="xxx" style="text;strokeColor=none;fillColor=none;align=left;verticalAlign=top;spacingLeft=4;spacingRight=4;overflow=hidden;rotatable=0;points=[[0,0.5],[1,0.5]];portConstraint=eastwest;whiteSpace=wrap;html=1;" vertex="1" parent="8VK9so_CP51kFQA9M_FP-31">
          <mxGeometry y="26" width="185" height="26" as="geometry" />
        </mxCell>
        <mxCell id="8VK9so_CP51kFQA9M_FP-33" value="1" style="edgeLabel;resizable=0;html=1;align=right;verticalAlign=bottom;" connectable="0" vertex="1" parent="1">
          <mxGeometry x="230" y="789.9951724137931" as="geometry" />
        </mxCell>
        <mxCell id="8VK9so_CP51kFQA9M_FP-34" value="1" style="edgeLabel;resizable=0;html=1;align=right;verticalAlign=bottom;" connectable="0" vertex="1" parent="1">
          <mxGeometry x="420" y="789.9951724137931" as="geometry" />
        </mxCell>
        <mxCell id="8VK9so_CP51kFQA9M_FP-36" value="Layers Pattern" style="swimlane;fontStyle=0;childLayout=stackLayout;horizontal=1;startSize=26;fillColor=none;horizontalStack=0;resizeParent=1;resizeParentMax=0;resizeLast=0;collapsible=1;marginBottom=0;whiteSpace=wrap;html=1;" vertex="1" parent="1">
          <mxGeometry x="518.75" y="790" width="142.5" height="52" as="geometry" />
        </mxCell>
        <mxCell id="8VK9so_CP51kFQA9M_FP-37" value="xxx" style="text;strokeColor=none;fillColor=none;align=left;verticalAlign=top;spacingLeft=4;spacingRight=4;overflow=hidden;rotatable=0;points=[[0,0.5],[1,0.5]];portConstraint=eastwest;whiteSpace=wrap;html=1;" vertex="1" parent="8VK9so_CP51kFQA9M_FP-36">
          <mxGeometry y="26" width="142.5" height="26" as="geometry" />
        </mxCell>
        <mxCell id="8VK9so_CP51kFQA9M_FP-38" value="Publish-Subscribe Pattern" style="swimlane;fontStyle=0;childLayout=stackLayout;horizontal=1;startSize=26;fillColor=none;horizontalStack=0;resizeParent=1;resizeParentMax=0;resizeLast=0;collapsible=1;marginBottom=0;whiteSpace=wrap;html=1;" vertex="1" parent="1">
          <mxGeometry x="680.17" y="790" width="142.5" height="52" as="geometry" />
        </mxCell>
        <mxCell id="8VK9so_CP51kFQA9M_FP-39" value="xxx" style="text;strokeColor=none;fillColor=none;align=left;verticalAlign=top;spacingLeft=4;spacingRight=4;overflow=hidden;rotatable=0;points=[[0,0.5],[1,0.5]];portConstraint=eastwest;whiteSpace=wrap;html=1;" vertex="1" parent="8VK9so_CP51kFQA9M_FP-38">
          <mxGeometry y="26" width="142.5" height="26" as="geometry" />
        </mxCell>
        <mxCell id="8VK9so_CP51kFQA9M_FP-40" value="1" style="edgeLabel;resizable=0;html=1;align=right;verticalAlign=bottom;" connectable="0" vertex="1" parent="1">
          <mxGeometry x="600" y="789.9951724137931" as="geometry" />
        </mxCell>
        <mxCell id="8VK9so_CP51kFQA9M_FP-41" value="1" style="edgeLabel;resizable=0;html=1;align=right;verticalAlign=bottom;" connectable="0" vertex="1" parent="1">
          <mxGeometry x="730" y="789.9951724137931" as="geometry" />
        </mxCell>
      </root>
    </mxGraphModel>
  </diagram>
</mxfile>
